
<svg xmlns="http://www.w3.org/2000/svg" xmlns:xlink="http://www.w3.org/1999/xlink" viewBox="0 0 11.04 2.09"><defs><style>.cls-1{fill-rule:evenodd;fill:url(#radial-gradient);}.cls-2{fill:#fff;}</style><radialGradient id="radial-gradient" cx="-2136.18" cy="689.41" r="0.1" gradientTransform="matrix(0, -20.04, -20.94, 0, 14438.07, -42807.31)" gradientUnits="userSpaceOnUse"><stop offset="0" stop-color="#376df9"/><stop offset="0.46" stop-color="#039540"/><stop offset="0.77" stop-color="#79ffa5"/><stop offset="1" stop-color="#ffd4ca"/></radialGradient></defs><g id="Layer_2" data-name="Layer 2"><g id="Layer_1-2" data-name="Layer 1"><path id="d" class="cls-1" d="M.87.07c.59.48.88.88.88,1.18a.85.85,0,0,1-.86.84h0A.85.85,0,0,1,0,1.26H0C0,1,.29.55.87.07Z"/><path class="cls-2" d="M2.19,2.06V0H4.25V.51H2.71V.77H4.25v.52H2.71v.77Z"/><path class="cls-2" d="M4.46,2.06V0H5V1.54H6V0h.51V2.06Z"/><path class="cls-2" d="M6.72,2.06V0H8.78V.51H7.23V.77H8.78v.52H7.23v.25H8.78v.52Z"/><path class="cls-2" d="M9,2.06V0H9.5V1.54H11v.52Z"/></g></g></svg>